{"asset":{"version":"2.0","generator":"THREE.GLTFExporter"},"scenes":[{"nodes":[0],"name":"AuxScene"}],"scene":0,"nodes":[{"mesh":0}],"bufferViews":[{"buffer":0,"byteOffset":0,"byteLength":130536,"target":34962,"byteStride":12},{"buffer":0,"byteOffset":130536,"byteLength":130536,"target":34962,"byteStride":12}],"buffers":[{"byteLength":261072,"uri":"data:application/octet-stream;base64,"}],"accessors":[{"bufferView":0,"componentType":5126,"count":10878,"max":[100.61190795898438,9.595970153808594,100.61190795898438],"min":[-100.68809509277344,0.19596900045871735,-114.48809814453125],"type":"VEC3"},{"bufferView":1,"componentType":5126,"count":10878,"max":[0.9912598133087158,1,0.9701396226882935],"min":[-0.977388858795166,0.09563504159450531,-0.986241340637207],"type":"VEC3"}],"materials":[{"pbrMetallicRoughness":{"baseColorFactor":[0.5019607843137255,0.5019607843137255,0.5019607843137255,1],"metallicFactor":0,"roughnessFactor":1}}],"meshes":[{"primitives":[{"mode":4,"attributes":{"POSITION":0,"NORMAL":1},"material":0}]}]}